<?xml version="1.0" encoding="UTF-8"?>
<svg id="Layer_1" xmlns="http://www.w3.org/2000/svg" version="1.1" viewBox="0 0 1280 1024">
  <!-- Generator: Adobe Illustrator 29.3.1, SVG Export Plug-In . SVG Version: 2.1.0 Build 151)  -->
  <defs>
    <style>
      .st0 {
        fill: #f2c7da;
        stroke: #000;
        stroke-miterlimit: 10;
      }

      .st1 {
        fill: #7c2f1f;
      }
    </style>
  </defs>
  <rect class="st0" x="0" width="1280" height="1024"/>
  <g>
    <path class="st1" d="M255.7,425.3c.3,17.5.6,31.5.9,36.8.6,13.1,6.7,17.5,16.6,17.5h14.3v17.2s-31.8-.6-49.9-.6-30.4.3-41.3.4c-4.9,0-8.9-3.9-8.9-8.8h0c0-4.9,4-8.8,8.8-8.8h5.2c13.4,0,19.3-4.4,19.9-17.2.9-16.4.9-118,0-135.5-.6-11.1-4.4-14.3-15.2-14.3h-18.7v-17.2h94.9c45.3,0,81.8,17.2,81.8,64.3s-36.2,67.2-81.8,67.2-20.2-.3-26.6-.9ZM255.7,408.6h20.2c36.2,0,48.5-16.7,48.5-49.9s-12-49.4-47-49.4h-9.3c-8.5,0-11.1,5.3-11.4,11.7-.9,13.4-.9,53.2-.9,87.6Z"/>
    <path class="st1" d="M456.4,489.1c4.3,1.1,6.8,5.8,5,9.9-8.7,20.1-27,32.3-54.7,32.3-41.5,0-65.1-26.6-65.1-71.9s28.3-72.1,65.4-72.1,61.9,32.4,59,76.5h-90.2c.9,38,12.3,51.7,36.5,51.7s30.6-8.9,35.7-22c1.3-3.4,4.9-5.3,8.5-4.5h0ZM375.7,453.9h48.8c4.4,0,5.8-1.2,5.8-7.3,0-29.8-7.6-45.6-24.8-45.6s-28.9,14.3-29.8,52.9Z"/>
    <path class="st1" d="M599.5,482.8c-6.7,22.2-22.5,40.3-57.2,40.3s-63.7-26.9-63.7-71,26-72.1,66.9-72.1,49.9,12.9,49.9,32.1-7.6,19-20.1,19-19.6-7-19.6-17.5,2.9-14,11.4-16.7c-5.5-2.9-12.6-4.7-21-4.7-24.2,0-33.3,15.8-33.3,59.6s9.9,55.5,33.6,55.5,33.3-11.4,38-28l15.2,3.5Z"/>
    <path class="st1" d="M730.9,401.3c-.3,13.4,0,48.5.3,63.7.3,10.5,5.3,16.9,17.2,16.6h16v14.6c-7.3,0-22.9,0-37.2.2-14.9.2-27-11.8-27-26.7h0c-7,19.6-20.4,32.4-45.3,32.4s-46.1-12.6-45.3-56.4c.3-16.6.6-38.3,0-51.4-.6-12-3.8-17.5-17.8-17.5h-5.8v-14.6h26.9c11.1,0,22.8-.3,28.6-.9-.9,15.5-.9,27.2-.9,40v43.2c0,36.8,18.7,40.3,26.9,40.3,21.9,0,32.7-18.4,32.7-60.2v-30.4c0-12.9-12.4-16.4-20.4-17.3-3.8-.4-6.7-3.6-6.7-7.4h0c0-4.1,3.3-7.4,7.4-7.4h25.3c10.5,0,19.9,0,26.3-.9-.9,13.4-.9,30.1-1.2,40Z"/>
    <path class="st1" d="M792.6,490.7c0,16.1,10.3,19.9,17.4,20.6,3.8.4,6.6,3.6,6.6,7.4h0c0,4.2-3.5,7.6-7.7,7.5-8.5-.3-21.5-.7-31.4-.7s-36.5.9-39.4.9v-15.2h7c13.1-.3,16.1-5.3,16.6-20.2.6-14.9.6-120.6,0-132.9-.6-12.3-2.3-19.6-18.1-19.6h-5.5v-14.6c13.1,0,43.2,0,54.6-.9v167.6Z"/>
    <path class="st1" d="M871.5,471.7c.6,15.2,5,17.5,17.5,17.5h6.4v15.2c-5,0-25.1-.9-39.1-.9s-36.5.9-39.4.9v-15.2h7c13.1-.3,16.1-2.3,16.6-17.2.6-14.9,0-59.3,0-71.3s-10.5-14.4-17.5-15.8-6.2-3.9-6.2-7.6h0c0-4.3,3.5-7.8,7.8-7.8,14.8,0,37.3-.1,46.8-.9,0,0-.6,87.9,0,103.1ZM853.3,340.6c-11.1,0-20.2-9.1-20.2-20.4s9.1-20.4,20.2-20.4,20.4,9.1,20.4,20.4-9.1,20.4-20.4,20.4Z"/>
    <path class="st1" d="M879.6,667.4c.6,15.2,5,17.5,17.5,17.5h6.4v15.2c-5,0-25.1-.9-39.1-.9s-23.1.4-31.6.7c-4.3.1-7.8-3.3-7.8-7.6h0c0-3.8,2.8-7.1,6.6-7.5,7-.8,17.1-4.3,17.1-17.1s.6-46.3,0-58.2c-.6-12-2.3-16.6-18.1-16.6h-5.5v-14.6c9.7,0,28.7,0,42.6-.4,6.6-.2,12,5.1,12,11.7-.1,21.9-.4,66.5,0,77.8ZM861.5,565.6c-11.1,0-20.2-9.1-20.2-20.4s9.1-20.4,20.2-20.4,20.4,9.1,20.4,20.4-9.1,20.4-20.4,20.4Z"/>
    <path class="st1" d="M1004.4,498.6c0,12.9,3.2,14.9,7,14.9,6.4,0,9.6-11.1,8.8-33l11.4-.9c.9,32.4-4.4,49.9-27.7,49.9s-28.3-11.4-29.8-26.6c-7.6,14.6-20.7,26.3-41.8,26.3s-39.7-13.1-39.7-35c0-34.2,42.1-43.8,81.2-46.4v-9.1c0-26.9-5.3-39.4-31.3-39.1-9.1.3-15.5,1.8-20.4,4.1,9.3,1.8,14.6,7.9,14.6,16.9s-7.3,17.8-19.6,17.8-19.9-6.4-19.9-19.6c0-21,27.7-31.5,54.6-31.5,41.8,0,52.6,22.5,52.6,54v57.2ZM973.7,471.4v-16.1c-28,3.2-46.4,14.3-46.4,37.4s7,20.2,18.1,20.2c17.5,0,28.3-12.9,28.3-41.5Z"/>
    <path class="st1" d="M1074.8,427.5v33.6c0,15.4,11.9,18.6,19.9,19,3.9.2,7,3.3,7,7.2v.4c0,4.1-3.3,7.3-7.4,7.2-8.8-.3-22.7-.7-33.2-.7s-38,.9-40.9.9v-15.2h7c13.1-.3,16.1-3.5,16.6-18.4.6-14.6,0-55.8,0-68.3s-10.4-16.9-17.4-18c-3.6-.6-6.2-3.8-6.2-7.5h0c0-4.2,3.4-7.6,7.5-7.6,14.8,0,37.5-.1,47.1-.9l-2.6,29.5c5.8-23.1,18.7-32.7,37.1-32.7s29.5,10.5,29.5,28.3-7.9,22.8-21,22.8-18.7-6.7-18.7-17.5,10.2-18.1,20.4-17.5c-3.2-2.3-7.9-4.1-14.9-4.1-19.3,0-29.8,19.6-29.8,59.6Z"/>
    <path class="st1" d="M255.7,640.3c.3,17.5.6,31.5.9,36.8.6,13.1,6.7,17.5,16.6,17.5h5.8c4.7,0,8.5,3.8,8.5,8.5h0c0,4.8-3.9,8.6-8.6,8.5-10.7-.2-29.1-.4-41.3-.4-18.1,0-50.2.6-50.2.6v-17.8h14c13.4,0,19.3-4.4,19.9-17.2.9-16.4.9-118,0-135.5-.6-11.1-4.4-14.3-15.2-14.3h-18.7v-17.2h94.9c45.3,0,81.8,17.2,81.8,64.3s-36.2,67.2-81.8,67.2-20.2-.3-26.6-.9ZM255.7,623.6h20.2c36.2,0,48.5-16.6,48.5-49.9s-12-49.4-47-49.4h-9.3c-8.5,0-11.1,5.3-11.4,11.7-.9,13.4-.9,53.2-.9,87.6Z"/>
    <g>
      <path class="st1" d="M503.3,667.1c0,1.4-.2,2.7-.4,3.9,0,.1,0,.2,0,.4-2.2,19-10.7,28.4-16.7,28.4s-7-2-7-14.9v-57.2c0-31.5-10.8-54-52.6-54s-54.6,10.5-54.6,31.5,7.9,19.6,19.9,19.6,19.6-6.7,19.6-17.8-5.3-15.2-14.6-16.9c5-2.3,11.4-3.8,20.4-4.1,26-.3,31.3,12.3,31.3,39.1v9c-39.1,2.6-81.2,12.3-81.2,46.4s12.3,35.1,39.7,35.1,34.2-11.7,41.8-26.3c1.5,15.2,9.6,26.6,29.8,26.6s29.8-10.6,33.7-30.5c.1-1.3.4-2.6.6-3.7.7-4.7.9-10,.8-15.7l-10.3,1.2ZM448.5,657.7c0,28.6-10.8,41.5-28.3,41.5s-18.1-6.7-18.1-20.2c0-23.1,18.4-34.2,46.4-37.4v16.1Z"/>
      <path class="st1" d="M563,600c-31.3-3.8-38-9.6-38-21.3s8.5-18.1,28.3-18.1,27.8,4.3,35.4,17.1c2,3.3,3.7,7.2,5,11.7h11.2c-.1-4.3-.2-8.1-.3-11.7,0-9.7.2-18.1,1.2-30.8-2.6.3-7.9.3-10.5,0-1.5,11.7-3.2,11.7-8.5,7.9-7.6-5.3-15.2-9.1-30.4-9.6-32.1-1.2-53.7,17.8-53.7,43.8s10.5,40,51.4,44.4c29.2,3.2,36.2,10.8,36.2,20.4s-9.9,19.6-28.3,19.6-40.6-16.9-48.2-41.5c-2.6.3-8.5.3-11.1,0,1.1,13.2,1,26.2.1,39.1,0,.1,0,.2,0,.4-.3,4.7-.7,9.3-1.2,13.9,2.6-.3,8-.3,10.6,0,.1-1.3.4-2.6.6-3.7,1.3-7.2,4-11.2,11-5.9,12,9.1,24.2,13.4,37.7,13.4,34.2,0,50.5-16.9,50.5-45.3s-12.6-39.4-49.1-43.8Z"/>
    </g>
    <path class="st1" d="M704.2,668.9h-10.6c.4,6.2.2,11.2-.2,15.2-1.4,10.4-5.6,14.1-12.4,13.9-9.1-.3-12-7.3-12.3-31.8-.3-22.2-.6-54-.3-77l31,.3v-14.6l-30.7,1.8c.5-14,1.2-34.1,2.4-48,.3-3.9-2.7-7.2-6.6-7.2h0c-3.3,0-6.1,2.5-6.5,5.8-4.8,34.6-15.7,48.4-38.4,50.6v11.7l16.6-.3c.3,18.4.3,56.9,0,78.8-.6,29.8,9.6,45,35.6,45s30.3-12.6,32.1-28.9c.5-4.7.5-9.9.1-15Z"/>
    <path class="st1" d="M803.7,545.1c-18.4,0-31.3,9.6-37.1,32.7l2.6-29.5c-11.4.9-41.5.9-54.6.9v14.6h5.5c15.8,0,17.5,6.1,18.1,18.4.6,12.6.6,53.7,0,68.4-.6,14.9-3.5,18.1-16.7,18.4h-28c.4,6.2.2,11.2-.2,15.2,1.6,0,5.5,0,10.7-.1,15.1-.3,41.1-.7,51.5-.7s35.6.9,40.6.9v-15.2h-9.3c-12.6,0-17.5-3.5-17.5-18.7v-33.6c0-40,10.5-59.6,29.8-59.6s11.7,1.8,14.9,4.1c-10.2-.6-20.4,5-20.4,17.5s7,17.5,18.7,17.5,21-8.5,21-22.8-11.1-28.3-29.5-28.3Z"/>
    <path class="st1" d="M1010,650c4.3,1.1,6.8,5.8,5,9.9-8.7,20.1-27,32.3-54.7,32.3-41.5,0-65.1-26.6-65.1-71.8s28.3-72.1,65.4-72.1,61.9,32.4,59,76.5h-90.2c.9,38,12.3,51.7,36.5,51.7s30.6-8.9,35.7-22c1.3-3.4,4.9-5.3,8.5-4.5h0ZM929.3,614.8h48.8c4.4,0,5.8-1.2,5.8-7.3,0-29.8-7.6-45.6-24.8-45.6s-28.9,14.3-29.8,52.9Z"/>
    <path class="st1" d="M619.6,577.7v11.7h-25.8c-1.3-4.5-3-8.4-5-11.7h30.8Z"/>
    <path class="st1" d="M181.7,395.5c-37.8-4.1-60.2-47.7-40-78.5,8.4-13.8,24.1-22.7,40.1-22.4,12.7.2,25.4.4,38.1.1,5-.1,9.1,3.8,9.2,8.8.1,5.1-4.1,9.4-9.2,9.2-12.7-.3-25.4,0-38.1.1-14.4,0-27.2,12.7-25.3,27.2.9,12.1,14.8,22.4,25.3,17.4,10.3-4.5,22.3.1,26.8,10.4,6.7,14-6.1,30.8-21.2,28.4,0,0-5.6-.8-5.6-.8h0Z"/>
    <path class="st1" d="M181.7,465c-10.4-4.9-24.4,5.3-25.3,17.4-1.8,14.5,10.9,27.2,25.3,27.2,12.7.2,25.4.4,38.1.1,5-.1,9.1,3.8,9.2,8.8.1,5.1-4.1,9.4-9.2,9.2-12.7-.3-25.4,0-38.1.1-34.7,1-58.5-39-42.8-70.2,7.7-17.6,27.4-30.1,48.3-31.4,11.1-1.5,21.4,6.3,22.9,17.4,2.5,15.4-14.5,27.9-28.3,21.3h0Z"/>
    <path class="st1" d="M1091.5,587.6h-.4c-1,0-1.9-.2-3-.4l-7.1-.8c-27.5-4.5-27.5-12.5-27.5-16.4,0-11.5,9.3-18.4,25.4-19.1h9.8c10.7.6,18.2,2.7,23.3,6.7-5.9,2.2-9.7,7.3-9.7,13.4,0,9.6,6.7,15.3,17.9,15.3s16.6-7.2,16.6-17.2c0-19.9-17.3-32.3-47.6-34.1h-10.6c-28.5,1.4-48.5,19.3-48.5,43.4s6.3,36.4,48.4,42l8.6,1.2c29.4,4.3,35.3,11,35.3,20.3s-14,21.4-33.2,22l-9.9-.2c-14.1-.8-23.9-3.7-29.3-8.8,6.6-1.9,10.9-6.8,10.9-13.2,0-9.8-6.7-15.9-17.5-15.9s-17.7,7.2-17.7,17.2c0,20.6,20.8,35.2,53,37l10.6.2c34.8-1.3,56.4-19.6,56.4-47.8s-16.3-40.9-54.4-44.9Z"/>
  </g>
</svg>